<svg width="133" height="17" viewBox="0 0 133 17" fill="none" xmlns="http://www.w3.org/2000/svg">
<path d="M0 0.0600586H1.81324V14.6425H10.2829V16.3979H0V0.0600586Z" fill="#F5B324"/>
<path d="M17.5354 0.0600586H27.053V1.71043H19.3997V7.38073H27.053V9.08308H19.3565V14.5846H27.053V16.3969H17.5354V0.0600586Z" fill="#F5B324"/>
<path d="M34.3014 0.0600586H44.5843V1.65839H40.4034V16.3979H38.4312V1.71139H34.2985L34.3014 0.0600586Z" fill="#F5B324"/>
<path d="M59.7356 3.02478L60.8433 2.3762C60.8433 2.3762 60.1644 0.0507646 56.7223 0.0566518C53.2803 0.0625389 52.2442 1.96406 52.2864 4.53969C52.3285 7.11532 54.1045 7.9307 56.1267 8.83438C58.149 9.73806 59.4863 10.0256 59.3872 12.5443C59.2881 15.063 56.4662 14.7598 56.4662 14.7598C55.8107 14.7894 55.1591 14.6444 54.5779 14.3396C53.9968 14.0348 53.507 13.5811 53.1586 13.025L51.8998 13.8032C52.2929 14.6119 52.9139 15.2881 53.6863 15.7485C54.4588 16.2089 55.349 16.4335 56.2474 16.3945C59.6119 16.4622 60.8865 14.8795 61.0386 12.7788C61.1907 10.6781 60.5627 9.07969 58.7034 8.0877C56.844 7.09572 55.8353 7.07903 54.9317 6.34804C54.4585 6.02888 54.1114 5.55473 53.9503 5.00723C53.7891 4.45973 53.8239 3.87315 54.0486 3.34853C54.4352 1.79727 56.1287 1.57752 57.2463 1.61971C57.745 1.63013 58.2333 1.76391 58.6677 2.00909C59.1021 2.25428 59.4689 2.60323 59.7356 3.02478Z" fill="#F5B324"/>
<path d="M132.024 0.101074V1.74653H124.348V7.48259H132.023V8.98773H124.348V14.7404H132.023V16.3967H122.469V0.101074H132.024Z" fill="#F5B324"/>
<path d="M80.5856 3.59694L81.9122 3.01705C81.9122 3.01705 81.4785 0.0283203 77.539 0.0283203C73.5995 0.0283203 72.4368 2.89044 72.0943 5.67604C71.7765 7.93242 71.8813 10.2283 72.4034 12.4463C72.7743 13.454 73.3287 15.643 76.0338 16.2131C78.739 16.7831 80.1195 15.8265 80.3913 15.6175C81.1085 15.0427 81.6394 14.2683 81.9171 13.3921L80.616 12.8594C80.3445 13.5326 79.8437 14.0881 79.2021 14.4277C78.5605 14.7672 77.8195 14.8689 77.1102 14.7148C74.3462 14.3439 73.9959 11.4288 73.8448 9.90695C73.6937 8.38512 73.7879 4.94311 74.5081 3.69994C74.7873 3.0979 75.2292 2.58591 75.7841 2.22181C76.3389 1.8577 76.9845 1.65601 77.6479 1.63947C78.2824 1.60938 78.9099 1.78317 79.4385 2.13539C79.9671 2.48762 80.3691 2.99978 80.5856 3.59694Z" fill="#F5B324"/>
<path d="M110.235 0.0834961H105.978V16.3791C105.978 16.3791 108.512 16.3987 110.652 16.3987C112.331 16.3987 116.107 15.7119 116.107 8.65419C116.106 6.7968 116.717 0.0834961 110.235 0.0834961ZM110.742 14.7287H107.932V1.725H109.958C110.883 1.725 114.208 1.21284 114.208 8.24013C114.208 14.6875 111.548 14.7287 110.743 14.7287H110.742Z" fill="#F5B324"/>
<path d="M47.3037 2.50519V0.0600586H49.1739V3.05759C49.2202 3.58511 49.1444 4.11622 48.9523 4.60969C48.7601 5.10316 48.4569 5.54574 48.0661 5.90307L47.6903 5.47428C47.6903 5.47428 48.6715 4.92084 48.4949 2.50711L47.3037 2.50519Z" fill="#F5B324"/>
<path d="M93.9369 0.0605469C89.4804 0.0605469 88.2578 3.4035 88.2578 8.24862C88.2578 12.7366 89.3499 16.3974 93.9409 16.3974C98.4318 16.3974 99.622 12.8946 99.622 8.24862C99.622 3.80579 98.6947 0.0605469 93.9369 0.0605469ZM93.9487 14.7726C90.9227 14.7726 90.0916 11.9801 90.0916 8.23485C90.0916 4.2885 90.9747 1.68343 93.9585 1.68343C97.062 1.68343 97.8068 4.62701 97.8068 8.23485C97.8058 11.8819 97.0012 14.7726 93.9507 14.7726H93.9487Z" fill="#F5B324"/>
</svg>
